<svg width="10" height="10" viewBox="0 0 10 10" fill="none" xmlns="http://www.w3.org/2000/svg">
<path d="M5 7.23438C4.91667 7.23438 4.83854 7.22146 4.76563 7.19563C4.69271 7.1698 4.625 7.12542 4.5625 7.0625L2.3125 4.8125C2.1875 4.6875 2.1275 4.54167 2.1325 4.375C2.1375 4.20834 2.1975 4.0625 2.3125 3.9375C2.4375 3.8125 2.58604 3.7475 2.75813 3.7425C2.93021 3.7375 3.07854 3.79729 3.20313 3.92188L4.375 5.09375V0.625002C4.375 0.447919 4.435 0.299586 4.555 0.180002C4.675 0.0604189 4.82333 0.000418822 5 2.15517e-06C5.17667 -0.000414512 5.32521 0.0595856 5.44563 0.180002C5.56604 0.300419 5.62583 0.448752 5.625 0.625002V5.09375L6.79688 3.92188C6.92188 3.79688 7.07042 3.73688 7.2425 3.74188C7.41459 3.74688 7.56292 3.81209 7.6875 3.9375C7.80208 4.0625 7.86209 4.20834 7.8675 4.375C7.87292 4.54167 7.81292 4.6875 7.6875 4.8125L5.4375 7.0625C5.375 7.125 5.30729 7.16938 5.23438 7.19563C5.16146 7.22188 5.08333 7.2348 5 7.23438ZM1.25 10C0.90625 10 0.612083 9.87771 0.3675 9.63313C0.122917 9.38855 0.000416667 9.09417 0 8.75V7.5C0 7.32292 0.0600001 7.17459 0.18 7.055C0.3 6.93542 0.448333 6.87542 0.625 6.875C0.801667 6.87459 0.950208 6.93459 1.07063 7.055C1.19104 7.17542 1.25083 7.32375 1.25 7.5V8.75H8.75V7.5C8.75 7.32292 8.81 7.17459 8.93 7.055C9.05 6.93542 9.19834 6.87542 9.375 6.875C9.55167 6.87459 9.70021 6.93459 9.82063 7.055C9.94104 7.17542 10.0008 7.32375 10 7.5V8.75C10 9.09375 9.87771 9.38813 9.63313 9.63313C9.38854 9.87813 9.09417 10.0004 8.75 10H1.25Z" fill="#F3FCF7"/>
</svg>
