<svg width="15" height="15" viewBox="0 0 15 15" fill="none" xmlns="http://www.w3.org/2000/svg">
<path d="M7.5 10.6111C8.32511 10.6111 9.11644 10.2834 9.69988 9.69992C10.2833 9.11647 10.6111 8.32515 10.6111 7.50003C10.6111 6.67491 10.2833 5.88359 9.69988 5.30014C9.11644 4.71669 8.32511 4.38892 7.5 4.38892C6.67488 4.38892 5.88356 4.71669 5.30011 5.30014C4.71666 5.88359 4.38889 6.67491 4.38889 7.50003C4.38889 8.32515 4.71666 9.11647 5.30011 9.69992C5.88356 10.2834 6.67488 10.6111 7.5 10.6111Z" stroke="#12534C" stroke-linecap="round" stroke-linejoin="round"/>
<path d="M0.5 10.6111V4.38889C0.5 3.35749 0.909721 2.36834 1.63903 1.63903C2.36834 0.909721 3.35749 0.5 4.38889 0.5H10.6111C11.6425 0.5 12.6317 0.909721 13.361 1.63903C14.0903 2.36834 14.5 3.35749 14.5 4.38889V10.6111C14.5 11.6425 14.0903 12.6317 13.361 13.361C12.6317 14.0903 11.6425 14.5 10.6111 14.5H4.38889C3.35749 14.5 2.36834 14.0903 1.63903 13.361C0.909721 12.6317 0.5 11.6425 0.5 10.6111Z" stroke="#12534C"/>
<path d="M11.7778 3.22999L11.7855 3.22144" stroke="#12534C" stroke-linecap="round" stroke-linejoin="round"/>
</svg>
