<svg width="15" height="15" viewBox="0 0 15 15" fill="none" xmlns="http://www.w3.org/2000/svg">
<path d="M6.01152 7.11351C5.5707 7.11351 5.13979 7.24423 4.77326 7.48913C4.40674 7.73404 4.12107 8.08213 3.95237 8.48939C3.78368 8.89665 3.73954 9.34478 3.82554 9.77713C3.91154 10.2095 4.12381 10.6066 4.43552 10.9183C4.74722 11.23 5.14435 11.4423 5.5767 11.5283C6.00904 11.6143 6.45718 11.5701 6.86444 11.4015C7.2717 11.2328 7.61979 10.9471 7.8647 10.5806C8.1096 10.214 8.24032 9.78313 8.24032 9.34231V3.42871C8.58528 4.90823 9.57872 5.93975 11.2173 5.93975" stroke="#12534C" stroke-linecap="round" stroke-linejoin="round"/>
<path d="M0.7352 11.1613C0.823754 11.9493 1.17687 12.6841 1.73689 13.2455C2.29692 13.8069 3.03075 14.1619 3.81856 14.2525C5.01696 14.3858 6.2456 14.5 7.5 14.5C8.7544 14.5 9.98416 14.3858 11.1814 14.2514C11.9693 14.1608 12.7031 13.8058 13.2631 13.2444C13.8231 12.6829 14.1762 11.9482 14.2648 11.1602C14.3925 9.9696 14.5 8.74656 14.5 7.5C14.5 6.25344 14.3925 5.0304 14.2648 3.83872C14.1762 3.05068 13.8231 2.31595 13.2631 1.7545C12.7031 1.19306 11.9693 0.838075 11.1814 0.74752C9.98304 0.61536 8.7544 0.5 7.5 0.5C6.2456 0.5 5.01584 0.61424 3.81856 0.74864C3.03075 0.839195 2.29692 1.19418 1.73689 1.75562C1.17687 2.31707 0.823754 3.0518 0.7352 3.83984C0.60752 5.02928 0.5 6.25232 0.5 7.5C0.5 8.74768 0.60752 9.9696 0.7352 11.1613Z" stroke="#12534C" stroke-linecap="round" stroke-linejoin="round"/>
</svg>
